<?xml version="1.0" encoding="UTF-8"?>
<svg xmlns="http://www.w3.org/2000/svg" viewBox="0 0 48 48" aria-hidden="true">
  <path fill="#EA4335" d="M24 9.5c3.54 0 6 1.54 7.38 2.83l5.4-5.26C33.66 3.36 29.26 1.5 24 1.5 14.82 1.5 7.09 6.68 3.4 14.27l6.66 5.18C11.52 13.3 17.2 9.5 24 9.5z"/>
  <path fill="#4285F4" d="M46.5 24.5c0-1.56-.14-3.07-.4-4.5H24v8.51h12.7c-.55 2.89-2.22 5.34-4.74 6.98l7.17 5.56C43.54 37.36 46.5 31.5 46.5 24.5z"/>
  <path fill="#FBBC04" d="M10.06 28.45a14.5 14.5 0 0 1-.76-4.45c0-1.54.27-3.03.75-4.44L3.4 14.27A22.45 22.45 0 0 0 1.5 24c0 3.53.84 6.88 2.33 9.85l6.23-5.4z"/>
  <path fill="#34A853" d="M24 46.5c6.26 0 11.52-2.07 15.36-5.65l-7.17-5.56c-2 1.35-4.56 2.16-8.19 2.16-6.8 0-12.48-3.8-14.94-9.18l-6.66 5.18C7.1 41.31 14.82 46.5 24 46.5z"/>
</svg>
